# xmcd
#
# Track frame offsets:
#	150
#	29675
#	55121
#	68306
#	90551
#	108029
#	126633
#	143556
#	163124
#	187354
#	204593
#	221226
#	237615
#	256226
#	269692
#	287728
#	305743
#	320190
#	340512
#
# Disc length: 4770 seconds
#
# Revision: 1
# Processed by: cddbd v1.5.2PL0 Copyright (c) Steve Scherf et al.
# Submitted via: audiograbber 1.83.01
#
DISCID=3112a013
DTITLE=Various Artist - Sunday Morning [Disc 1]
DYEAR=2009
DGENRE=Easy Listening
TTITLE0=Elbow - One Day Like This
TTITLE1=The Verve - Rather Be
TTITLE2=The Velvet Underground, Nico - Sunday Morning (Album Version - Stereo)
TTITLE3=Coldplay - Fix You
TTITLE4=Peter Bjorn And John - Paris 2004
TTITLE5=Air - Left Bank
TTITLE6=Angus and Julia Stone - Wasted
TTITLE7=The Whitlams - No Aphrodisiac
TTITLE8=Athlete - The Outsiders
TTITLE9=Beth Rowley - I Shall Be Released
TTITLE10=Cherry Ghost - 4AM
TTITLE11=Jackson Jackson - Take Me Back
TTITLE12=Spiritualized - Soul On Fire
TTITLE13=Paul Weller - One Bright Star
TTITLE14=Richard Hawley - Lady's Bridge
TTITLE15=Amy McDonald - Youth Of Today
TTITLE16=José González - Down The Line
TTITLE17=Sigur Rós - Hoppípolla
TTITLE18=Radiohead - No Surprises
EXTD=
EXTT0=
EXTT1=
EXTT2=
EXTT3=
EXTT4=
EXTT5=
EXTT6=
EXTT7=
EXTT8=
EXTT9=
EXTT10=
EXTT11=
EXTT12=
EXTT13=
EXTT14=
EXTT15=
EXTT16=
EXTT17=
EXTT18=
PLAYORDER=
